<svg width="141" height="130" viewBox="0 0 141 130" fill="none" xmlns="http://www.w3.org/2000/svg">
<path d="M97.834 7.68494L92.9443 11.9634C92.5618 12.2981 92.28 12.7327 92.1305 13.2185L91.2511 16.0766C91.0817 16.6272 91.0888 17.2132 91.2746 17.7586C93.3087 23.7301 97.1321 34.844 98.1761 37.4542C99.1911 39.9915 108.124 48.6045 113.421 53.4832C114.149 54.154 115.182 54.3691 116.121 54.056L122.813 51.8256C116.654 48.4038 107.825 35.4011 105.362 31.295C102.898 27.1889 99.3167 13.8441 97.834 7.68494Z" fill="#FF9B3F"/>
<path fill-rule="evenodd" clip-rule="evenodd" d="M5.52658 87.9112L22.8725 75.7073L21.2974 73.4685L3.87501 85.7262C3.14417 86.2404 2.61928 87.1661 2.80028 88.2203C2.93606 89.0111 3.25661 90.2504 4.01909 91.5711C4.78091 92.8906 5.6478 93.7094 6.25789 94.1712L7.08386 93.0798L6.2579 94.1712C7.07456 94.7892 8.0656 94.7362 8.78895 94.4008L28.19 85.407L27.0387 82.9234L7.75304 91.8638C7.38779 91.56 6.86966 91.0336 6.38975 90.2024C5.87789 89.3158 5.63791 88.4782 5.52658 87.9112ZM5.45015 87.965L5.45023 87.9649Z" fill="#9AD7EB"/>
<path fill-rule="evenodd" clip-rule="evenodd" d="M109.586 52.6946C102.38 51.6449 95.7087 47.4257 91.7853 40.6303C87.7806 33.6939 87.5323 25.6197 90.409 18.763C90.4885 19.7721 90.6388 20.8399 90.8605 21.9568C91.7306 26.3412 93.7398 31.6971 97.2115 37.7103C100.673 43.705 104.294 48.2953 107.767 51.2735C108.371 51.791 108.978 52.2663 109.586 52.6946ZM117.404 52.5804L117.38 52.4619C115.439 52.8501 112.76 51.9482 109.549 49.1953C106.387 46.4842 102.948 42.1722 99.5821 36.3416C96.2265 30.5295 94.3455 25.4548 93.5455 21.4239C92.7335 17.3325 93.0728 14.5196 93.871 13.0562L93.799 13.0169C94.7279 11.8427 95.7723 10.744 96.9273 9.73922C96.8323 11.4139 97.0519 13.3791 97.5248 15.5219C98.6253 20.5074 101.17 26.7729 104.924 33.2757C108.678 39.7783 112.784 45.0311 116.506 48.393C118.065 49.8014 119.6 50.9166 121.051 51.6427C119.849 52.0524 118.63 52.364 117.404 52.5804ZM125.437 49.6495C125.438 49.6489 125.439 49.6484 125.44 49.6479C137.223 42.8447 141.26 27.7772 134.457 15.9936C127.654 4.21012 112.586 0.172789 100.803 6.976C100.358 7.23294 99.8912 7.87398 99.7134 9.29897C99.5387 10.6995 99.6842 12.6048 100.198 14.9318C101.222 19.57 103.637 25.571 107.295 31.907C110.953 38.2434 114.891 43.2454 118.341 46.3616C120.072 47.9248 121.62 48.9591 122.896 49.4768C124.186 49.9997 124.974 49.9152 125.437 49.6495ZM126.808 52.0185C126.805 52.0203 126.802 52.0221 126.799 52.0239C113.708 59.5755 96.972 55.0886 89.4147 41.999C81.8555 28.9062 86.3415 12.1645 99.4343 4.60534C112.527 -2.95378 129.269 1.53214 136.828 14.6249C144.387 27.7177 139.901 44.4594 126.808 52.0185Z" fill="#9AD7EB"/>
<path fill-rule="evenodd" clip-rule="evenodd" d="M110.123 51.9316L109.451 53.6182C101.975 52.5291 95.0492 48.1502 90.977 41.0969C86.8203 33.8973 86.5636 25.5159 89.5484 18.4019L91.3395 18.6897C91.4158 19.6588 91.5606 20.6902 91.776 21.7751C92.6222 26.039 94.5876 31.299 98.0198 37.2436C101.449 43.1824 105.007 47.6778 108.375 50.5649C108.958 51.0651 109.542 51.522 110.123 51.9316ZM117.38 52.4619C117.38 52.4618 117.38 52.4619 117.38 52.4619L117.404 52.5803C118.209 52.4382 119.011 52.2552 119.807 52.0301C120.223 51.9125 120.638 51.7833 121.051 51.6427C120.684 51.4594 120.313 51.2513 119.937 51.02C118.823 50.335 117.672 49.4459 116.506 48.393C112.784 45.0311 108.678 39.7783 104.924 33.2757C101.17 26.7729 98.6253 20.5074 97.5248 15.5219C97.1667 13.8994 96.9538 12.3788 96.9128 11.009C96.8997 10.5697 96.9042 10.1459 96.9273 9.73922C96.6001 10.0239 96.2818 10.3161 95.9724 10.6154C95.4205 11.1495 94.8971 11.7062 94.403 12.2832C94.2965 12.4075 94.1914 12.5328 94.0877 12.659C93.9903 12.7775 93.894 12.8968 93.799 13.0169L93.871 13.0562C93.8688 13.0603 93.8666 13.0644 93.8643 13.0686C93.0709 14.5355 92.7358 17.344 93.5455 21.4239C94.3455 25.4548 96.2265 30.5295 99.5821 36.3416C102.948 42.1722 106.387 46.4842 109.549 49.1953C112.76 51.9481 115.439 52.85 117.38 52.4619ZM92.6748 13.4668C92.0351 15.2873 91.9241 18.0486 92.63 21.6056C93.4539 25.757 95.3786 30.9276 98.7739 36.8083C102.172 42.6948 105.673 47.1017 108.941 49.9039C111.809 52.3621 114.436 53.5358 116.632 53.4797L116.667 53.658L117.566 53.4995C118.839 53.2749 120.105 52.9514 121.352 52.526L123.463 51.806L121.468 50.808C120.117 50.1317 118.652 49.0737 117.132 47.7004C113.502 44.4222 109.454 39.2549 105.732 32.8091C102.011 26.3631 99.5105 20.1878 98.4362 15.3207C97.9743 13.2281 97.7705 11.3533 97.8591 9.7921L97.9845 7.58232L96.3147 9.03508C95.1157 10.0782 94.0314 11.2188 93.0671 12.4378L92.3802 13.3061L92.6748 13.4668ZM125.902 50.4588C125.088 50.9262 123.968 50.9186 122.546 50.3417C121.129 49.7673 119.488 48.6558 117.715 47.0542C114.172 43.8542 110.177 38.7667 106.486 32.3737C102.795 25.9808 100.336 19.8896 99.2865 15.133C98.761 12.7522 98.5942 10.7308 98.7873 9.18342C98.9819 7.62338 99.5279 6.63444 100.336 6.16772C112.566 -0.893224 128.205 3.29705 135.266 15.527C142.326 27.7569 138.136 43.3952 125.906 50.4562L125.905 50.4568L125.902 50.4588ZM126.333 51.2154L126.341 51.2104C138.988 43.909 143.321 27.738 136.02 15.0916C128.718 2.44521 112.547 -1.88776 99.9009 5.41363C87.2545 12.715 82.9216 28.8859 90.223 41.5323C97.5226 54.1757 113.688 58.5095 126.333 51.2154ZM107.55 52.3104C101.138 50.8205 95.3362 46.7805 91.7853 40.6303C88.1505 34.3345 87.6102 27.1013 89.6925 20.6919C89.9043 20.0398 90.1433 19.3962 90.409 18.763C90.4599 19.4093 90.5399 20.0796 90.649 20.7715C90.7103 21.16 90.7808 21.5552 90.8605 21.9568C91.7306 26.3412 93.7398 31.6971 97.2115 37.7103C100.673 43.705 104.294 48.2953 107.767 51.2735C107.837 51.3329 107.906 51.3918 107.975 51.4501C108.51 51.8996 109.048 52.3155 109.586 52.6946C108.902 52.5949 108.222 52.4667 107.55 52.3104ZM126.799 52.0239L126.808 52.0185C139.901 44.4594 144.387 27.7177 136.828 14.6249C129.269 1.53214 112.527 -2.95378 99.4343 4.60534C86.3415 12.1645 81.8555 28.9062 89.4147 41.999C96.972 55.0886 113.708 59.5755 126.799 52.0239ZM134.457 15.9936C141.26 27.7772 137.223 42.8447 125.44 49.6479L125.437 49.6495C124.974 49.9152 124.186 49.9997 122.896 49.4768C121.62 48.9591 120.072 47.9248 118.341 46.3616C114.891 43.2454 110.953 38.2434 107.295 31.907C103.637 25.571 101.222 19.57 100.198 14.9318C99.6842 12.6048 99.5387 10.6995 99.7134 9.29897C99.8912 7.87398 100.358 7.23294 100.803 6.976C112.586 0.172789 127.654 4.21012 134.457 15.9936Z" fill="#9AD7EB"/>
<path fill-rule="evenodd" clip-rule="evenodd" d="M73.8997 37.6398L88.4558 27.9551L86.9395 25.6761L72.6372 35.1919L71.6894 33.3547C70.7428 31.5194 68.3985 30.9345 66.7007 32.1099L56.7347 39.0095C55.3396 39.9753 54.863 41.8175 55.6147 43.3386L56.7968 45.7311L22.0747 68.8329C21.4271 69.2637 20.9452 69.9885 20.9019 70.8611C20.8238 72.4325 20.897 76.4822 23.2681 80.589C25.6625 84.7363 28.9534 86.4405 30.3058 86.9953C31.0395 87.2962 31.8033 87.2007 32.4078 86.9011L68.3404 69.0931L68.9886 70.4048C69.0351 70.4991 69.0594 70.6028 69.0594 70.708V108.284C69.0594 108.642 69.1142 108.987 69.216 109.311H59.8523C52.2931 109.311 46.1652 115.439 46.1652 122.998V126.42C46.1652 127.932 47.3908 129.157 48.9026 129.157H107.072C108.584 129.157 109.81 127.932 109.81 126.42V122.998C109.81 115.439 103.682 109.311 96.1229 109.311H87.3802C87.482 108.987 87.5368 108.642 87.5368 108.284V64.9097C87.5368 64.364 87.4063 63.8262 87.1561 63.3412L85.6884 60.4955L102.292 52.2669L101.076 49.8142L84.4334 58.0623L73.8997 37.6398ZM23.6319 71.0847L58.0195 48.2055L67.1278 66.6389L31.2465 84.4215C30.1822 83.9672 27.5745 82.573 25.6388 79.2203C23.6795 75.8268 23.5748 72.4509 23.6319 71.0847ZM69.2566 34.6095C69.0673 34.2425 68.5984 34.1255 68.2588 34.3606L58.2928 41.2601C58.0138 41.4533 57.9185 41.8217 58.0688 42.126L71.4427 69.1922C71.6756 69.6635 71.7968 70.1822 71.7968 70.708V108.284C71.7968 108.662 72.1032 108.969 72.4811 108.969H84.1151C84.493 108.969 84.7994 108.662 84.7994 108.284V64.9097C84.7994 64.8006 84.7733 64.693 84.7233 64.596L69.2566 34.6095ZM59.8523 112.048H96.1229C102.17 112.048 107.072 116.951 107.072 122.998V126.42H48.9026L48.9026 122.998C48.9026 116.951 53.805 112.048 59.8523 112.048Z" fill="#9AD7EB"/>
<path fill-rule="evenodd" clip-rule="evenodd" d="M73.8997 37.6398L88.4558 27.9551L86.9395 25.6761L72.6372 35.1919L71.6894 33.3547C70.7428 31.5194 68.3985 30.9345 66.7007 32.1099L56.7347 39.0095C55.3396 39.9753 54.863 41.8175 55.6147 43.3386L56.7968 45.7311L22.0747 68.8329C21.4271 69.2637 20.9452 69.9885 20.9019 70.8611C20.8238 72.4325 20.897 76.4822 23.2681 80.589C25.6625 84.7363 28.9534 86.4405 30.3058 86.9953C31.0395 87.2962 31.8033 87.2007 32.4078 86.9011L68.3404 69.0931L68.9886 70.4048C69.0351 70.4991 69.0594 70.6028 69.0594 70.708V108.284C69.0594 108.316 69.0598 108.347 69.0606 108.378C69.0693 108.702 69.1231 109.015 69.216 109.311H59.8523C52.2931 109.311 46.1652 115.439 46.1652 122.998V126.42C46.1652 127.932 47.3908 129.157 48.9026 129.157H107.072C108.584 129.157 109.81 127.932 109.81 126.42V122.998C109.81 115.439 103.682 109.311 96.1229 109.311H87.3802C87.4731 109.015 87.5269 108.702 87.5356 108.378C87.5364 108.347 87.5368 108.316 87.5368 108.284V64.9097C87.5368 64.364 87.4063 63.8262 87.1561 63.3412L85.6884 60.4955L102.292 52.2669L101.076 49.8142L84.4335 58.0622L73.8997 37.6398ZM100.654 51.0649L84.025 59.3064L72.6874 37.3254L87.1618 27.6951L86.6795 26.9701L72.2858 36.5467L70.86 33.7826C70.1715 32.4479 68.4667 32.0225 67.2319 32.8773L57.2659 39.7768C56.2514 40.4792 55.9048 41.8189 56.4514 42.9252L57.9972 46.0535L22.5917 69.6099C22.1614 69.8962 21.8611 70.3638 21.834 70.9074C21.7605 72.3878 21.8309 76.2331 24.0764 80.1224C26.3357 84.0355 29.4299 85.6271 30.6601 86.1318C31.108 86.3155 31.5905 86.2645 31.9933 86.0649L68.7632 67.8419L69.8253 69.9914C69.9354 70.2142 69.9927 70.4594 69.9927 70.708V108.284C69.9927 108.546 70.0328 108.797 70.1065 109.031L70.4874 110.244H59.8523C52.8086 110.244 47.0986 115.954 47.0986 122.998V126.42C47.0986 127.416 47.9063 128.224 48.9026 128.224H107.072C108.069 128.224 108.877 127.416 108.877 126.42V122.998C108.877 115.954 103.167 110.244 96.1229 110.244H86.1088L86.4897 109.031C86.5634 108.797 86.6035 108.546 86.6035 108.284V64.9097C86.6035 64.5129 86.5086 64.1217 86.3266 63.769L84.4242 60.0804L101.041 51.8451L100.654 51.0649ZM58.3861 46.8405L68.3775 67.0612L31.2756 85.4488L30.88 85.2799C29.6933 84.7733 26.8969 83.2661 24.8305 79.687C22.7481 76.0802 22.6385 72.5039 22.6994 71.0458L22.7192 70.571L58.3861 46.8405ZM108.006 127.353H47.9693L47.9693 122.998C47.9693 116.435 53.2895 111.115 59.8523 111.115H96.1229C102.686 111.115 108.006 116.435 108.006 122.998V127.353ZM70.0861 34.1817L85.5528 64.1682C85.6711 64.3975 85.7328 64.6517 85.7328 64.9097V108.284C85.7328 109.178 85.0085 109.902 84.1151 109.902H72.4811C71.5877 109.902 70.8634 109.178 70.8634 108.284V70.708C70.8634 70.3256 70.7753 69.9484 70.6059 69.6056L57.2321 42.5394C56.8767 41.8203 57.102 40.9493 57.7616 40.4928L67.7276 33.5932C68.5303 33.0375 69.6386 33.3141 70.0861 34.1817ZM69.2566 34.6095L84.7233 64.596C84.7733 64.693 84.7994 64.8006 84.7994 64.9097V108.284C84.7994 108.662 84.493 108.969 84.1151 108.969H72.4811C72.1032 108.969 71.7968 108.662 71.7968 108.284V70.708C71.7968 70.1822 71.6756 69.6635 71.4427 69.1922L58.0688 42.126C57.9185 41.8217 58.0138 41.4533 58.2928 41.2601L68.2588 34.3606C68.5984 34.1255 69.0673 34.2425 69.2566 34.6095ZM67.1278 66.6389L31.2465 84.4215C30.1822 83.9672 27.5745 82.573 25.6388 79.2203C23.6795 75.8268 23.5748 72.4509 23.6319 71.0847L58.0195 48.2055L67.1278 66.6389ZM107.072 122.998C107.072 116.951 102.17 112.048 96.1229 112.048H59.8523C53.805 112.048 48.9026 116.951 48.9026 122.998L48.9026 126.42H107.072V122.998Z" fill="#9AD7EB"/>
</svg>
