<svg width="140" height="130" viewBox="0 0 140 130" fill="none" xmlns="http://www.w3.org/2000/svg">
<g clip-path="url(#clip0_1146_8027)">
<circle cx="28.5" cy="52.5" r="11.5" fill="#FF9393"/>
<circle cx="111.5" cy="52.5" r="11.5" fill="#FF9393"/>
<circle cx="70.5" cy="23.5" r="16.5" fill="#FF9393"/>
<path d="M94.59 126.41C89.85 126.41 86 122.56 86 117.82V88.08C86 79.46 90.35 71.85 96.97 67.3C94.91 54.37 83.68 44.45 70.18 44.45C56.68 44.45 45.45 54.37 43.39 67.3C50.01 71.84 54.36 79.46 54.36 88.08V117.82C54.36 122.56 50.51 126.41 45.77 126.41C41.03 126.41 37.18 122.56 37.18 117.82V71.58C37.18 71.22 37.18 70.87 37.2 70.52C34.76 69.4 32.05 68.78 29.19 68.78C18.55 68.78 9.89001 77.44 9.89001 88.08V110.72C9.89001 112.34 8.57001 113.66 6.95001 113.66C5.33001 113.66 4.01001 112.34 4.01001 110.72V88.08C4.01001 74.2 15.31 62.9 29.19 62.9C32.27 62.9 35.22 63.46 37.96 64.47C41.22 49.68 54.44 38.57 70.2 38.57C85.96 38.57 99.17 49.67 102.44 64.47C105.17 63.45 108.12 62.9 111.21 62.9C125.09 62.9 136.39 74.2 136.39 88.08V110.72C136.39 112.34 135.07 113.66 133.45 113.66C131.83 113.66 130.51 112.34 130.51 110.72V88.08C130.51 77.44 121.85 68.78 111.21 68.78C108.35 68.78 105.64 69.4 103.2 70.52C103.21 70.87 103.22 71.23 103.22 71.58V117.82C103.22 122.56 99.37 126.41 94.63 126.41H94.59ZM97.3 74.68C93.94 78.15 91.88 82.88 91.88 88.08V117.82C91.88 119.32 93.1 120.53 94.59 120.53C96.08 120.53 97.3 119.31 97.3 117.82V74.68ZM43.05 74.68V117.82C43.05 119.32 44.27 120.53 45.76 120.53C47.25 120.53 48.47 119.31 48.47 117.82V88.08C48.47 82.88 46.4 78.15 43.05 74.68Z" fill="#9AD7EB"/>
<path d="M111.18 68.78C102.19 68.78 94.8701 61.46 94.8701 52.47C94.8701 43.48 102.19 36.16 111.18 36.16C120.17 36.16 127.49 43.48 127.49 52.47C127.49 61.46 120.17 68.78 111.18 68.78ZM111.18 42.04C105.43 42.04 100.75 46.72 100.75 52.47C100.75 58.22 105.43 62.9 111.18 62.9C116.93 62.9 121.61 58.22 121.61 52.47C121.61 46.72 116.93 42.04 111.18 42.04Z" fill="#9AD7EB"/>
<path d="M70.18 43.94C58.89 43.94 49.71 34.76 49.71 23.47C49.71 12.18 58.89 3 70.18 3C81.47 3 90.65 12.18 90.65 23.47C90.65 34.76 81.47 43.94 70.18 43.94ZM70.18 8.88C62.13 8.88 55.59 15.43 55.59 23.47C55.59 31.51 62.14 38.06 70.18 38.06C78.22 38.06 84.77 31.51 84.77 23.47C84.77 15.43 78.22 8.88 70.18 8.88Z" fill="#9AD7EB"/>
<path d="M28.6801 68.78C19.6901 68.78 12.3701 61.46 12.3701 52.47C12.3701 43.48 19.6901 36.16 28.6801 36.16C37.6701 36.16 44.9901 43.48 44.9901 52.47C44.9901 61.46 37.6701 68.78 28.6801 68.78ZM28.6801 42.04C22.9301 42.04 18.2501 46.72 18.2501 52.47C18.2501 58.22 22.9301 62.9 28.6801 62.9C34.4301 62.9 39.1101 58.22 39.1101 52.47C39.1101 46.72 34.4301 42.04 28.6801 42.04Z" fill="#9AD7EB"/>
</g>
<defs>
<clipPath id="clip0_1146_8027">
<rect width="132.36" height="123.41" fill="white" transform="translate(4 3)"/>
</clipPath>
</defs>
</svg>
